<svg width="50" height="40" viewBox="0 0 50 40" fill="none" xmlns="http://www.w3.org/2000/svg">
<path d="M30.6855 0.0979786C29.3574 -0.284834 27.9746 0.488604 27.5918 1.81673L17.5918 36.8167C17.209 38.1449 17.9824 39.5277 19.3105 39.9105C20.6387 40.2933 22.0215 39.5199 22.4043 38.1917L32.4043 3.19173C32.7871 1.8636 32.0137 0.480791 30.6855 0.0979786ZM36.9824 9.48079C36.0059 10.4574 36.0059 12.0433 36.9824 13.0199L43.959 20.0042L36.9746 26.9886C35.998 27.9652 35.998 29.5511 36.9746 30.5277C37.9512 31.5042 39.5371 31.5042 40.5137 30.5277L49.2637 21.7777C50.2402 20.8011 50.2402 19.2152 49.2637 18.2386L40.5137 9.4886C39.5371 8.51204 37.9512 8.51204 36.9746 9.4886L36.9824 9.48079ZM13.0215 9.48079C12.0449 8.50423 10.459 8.50423 9.48242 9.48079L0.732422 18.2308C-0.244141 19.2074 -0.244141 20.7933 0.732422 21.7699L9.48242 30.5199C10.459 31.4964 12.0449 31.4964 13.0215 30.5199C13.998 29.5433 13.998 27.9574 13.0215 26.9808L6.03711 20.0042L13.0215 13.0199C13.998 12.0433 13.998 10.4574 13.0215 9.48079Z" fill="#F5F5F5"/>
</svg>
