<svg width="68" height="57" viewBox="0 0 68 57" fill="none" xmlns="http://www.w3.org/2000/svg">
<path d="M67.9999 29.6176H64.7878V32.8304H61.575V29.6176H58.3632V26.4058H61.575V23.1936H64.7878V26.4058H67.9999V29.6176Z" fill="white"/>
<path d="M56.2791 29.6176H53.0673V32.8304H49.8551V29.6176H46.6429V26.4058H49.8551V23.1936H53.0673V26.4058H56.2791V29.6176Z" fill="white"/>
<path d="M40.2107 34.8891C37.816 39.136 33.2654 42.0062 28.0427 42.0062C22.8522 42.0062 18.3273 39.1721 15.9203 34.97C14.7511 32.9282 14.0787 30.5642 14.0787 28.0423C14.0787 20.3304 20.3309 14.0786 28.0427 14.0786C33.2 14.0786 37.701 16.8774 40.1199 21.0365L52.3252 14.0082C47.4739 5.63396 38.4167 0 28.0427 0C12.5549 0 0 12.5552 0 28.0423C0 33.1231 1.35167 37.8878 3.71403 41.9976C8.55308 50.4162 17.6361 56.0848 28.0427 56.0848C38.4685 56.0848 47.5658 50.3934 52.3979 41.9501L40.2107 34.8891Z" fill="white"/>
</svg>
