<svg width="60" height="57" viewBox="0 0 60 57" fill="none" xmlns="http://www.w3.org/2000/svg">
<path d="M50.0008 20.0875V24.0872H54.0005V20.0875H56.0003V24.0872H60V26.087H56.0003V30.0867H60V32.0866H56.0003V36.0863H54.0005V32.0866H50.0008V36.0863H48.0009V32.0866H44.0012V30.0867H48.0009V26.087H44.0012V24.0872H48.0009V20.0875H50.0008ZM54.0005 26.087H50.0008V30.0867H54.0005V26.087Z" fill="white"/>
<path d="M28.2012 0C38.6337 0 47.7422 5.66582 52.6208 14.0875L52.5732 14.0064L40.2988 21.074C37.8804 16.9793 33.447 14.216 28.3614 14.1591L28.2012 14.1582C20.4457 14.1582 14.1582 20.4454 14.1582 28.2009C14.1582 30.7371 14.8344 33.1144 16.0103 35.1678C18.4309 39.3936 22.9813 42.2438 28.2012 42.2438C33.4533 42.2438 38.0297 39.3574 40.4379 35.0864L40.3794 35.1889L52.6354 42.2891C47.8103 50.6394 38.8266 56.2878 28.5153 56.4003L28.2012 56.402C17.7358 56.402 8.6014 50.7013 3.73502 42.2352C1.35931 38.1021 0 33.3105 0 28.2009C0 12.6262 12.6258 0 28.2012 0Z" fill="white"/>
</svg>
