<svg width="65" height="65" viewBox="0 0 65 65" fill="none" xmlns="http://www.w3.org/2000/svg">
<path d="M57.2123 42.7152V46.0708C57.2126 46.2321 57.1616 46.3893 57.0667 46.5196C56.9717 46.65 56.8377 46.7468 56.6841 46.7959L51.4029 48.5042C51.289 48.5421 51.1677 48.5518 51.0492 48.5327C50.9307 48.5136 50.8186 48.4662 50.7224 48.3945C50.6258 48.3248 50.547 48.2333 50.4923 48.1274C50.4376 48.0215 50.4086 47.9043 50.4076 47.7852V44.1289L45.4554 45.0714V48.7906C45.4551 48.9748 45.388 49.1527 45.2666 49.2912C45.1453 49.4298 44.9778 49.5197 44.7952 49.5442L37.6351 50.5253C37.6026 50.5253 37.566 50.5253 37.5315 50.5253C37.4312 50.5261 37.3318 50.5071 37.2389 50.4692C37.146 50.4314 37.0615 50.3756 36.9904 50.305C36.9192 50.2343 36.8627 50.1503 36.8241 50.0578C36.7855 49.9652 36.7657 49.8659 36.7657 49.7656V45.8189L33.0709 45.8352H32.5285L28.8337 45.8189V49.7656C28.8339 49.8658 28.8144 49.9651 28.7763 50.0577C28.7381 50.1504 28.682 50.2346 28.6113 50.3056C28.5405 50.3765 28.4565 50.4328 28.3639 50.4712C28.2714 50.5096 28.1722 50.5294 28.0719 50.5294C28.0374 50.5294 28.0029 50.5294 27.9663 50.5294L20.8062 49.5483C20.624 49.5233 20.457 49.4332 20.336 49.2947C20.2151 49.1562 20.1483 48.9786 20.148 48.7947V45.0613L15.1938 44.1188V47.775C15.193 47.894 15.1643 48.0111 15.11 48.1169C15.0557 48.2228 14.9772 48.3144 14.881 48.3844C14.7843 48.4559 14.6719 48.5033 14.5531 48.5223C14.4344 48.5414 14.3128 48.5317 14.1985 48.4941L8.91727 46.7858C8.76404 46.7363 8.63051 46.6393 8.53595 46.509C8.44139 46.3787 8.39069 46.2217 8.39117 46.0606V42.7152L5.12492 41.6163C4.96007 42.3084 4.87555 43.0172 4.87305 43.7288C4.87305 52.4977 17.2271 59.2678 32.498 59.3166H32.5366C47.8055 59.2678 60.1616 52.4997 60.1616 43.7288C60.162 43.0802 60.0939 42.4334 59.9585 41.7991L57.2123 42.7152Z" fill="white"/>
<path d="M7.53797 27.1639V40.8281L9.38031 41.4497C9.53174 41.5 9.66347 41.5968 9.75681 41.7262C9.85015 41.8556 9.90036 42.0112 9.90031 42.1708V45.5223L13.6683 46.7411V43.1986C13.6685 43.0865 13.6933 42.9759 13.741 42.8745C13.7888 42.7731 13.8583 42.6834 13.9445 42.6119C14.0308 42.5404 14.1317 42.4887 14.2402 42.4606C14.3487 42.4324 14.462 42.4285 14.5722 42.449L21.0498 43.6861C21.2241 43.7188 21.3814 43.8114 21.4946 43.9479C21.6077 44.0845 21.6696 44.2563 21.6694 44.4336V48.1264L27.3061 48.8962V45.0572C27.3058 44.9569 27.3254 44.8575 27.3637 44.7649C27.402 44.6722 27.4583 44.588 27.5293 44.5172C27.6003 44.4464 27.6846 44.3904 27.7774 44.3523C27.8702 44.3142 27.9696 44.2949 28.0698 44.2954L32.7966 44.3137L37.5213 44.2954C37.6217 44.2946 37.7213 44.3138 37.8143 44.3517C37.9073 44.3897 37.9919 44.4457 38.0631 44.5165C38.1343 44.5873 38.1908 44.6716 38.2292 44.7644C38.2677 44.8572 38.2873 44.9567 38.287 45.0572V48.8962L43.9238 48.1264V44.4315C43.9227 44.2556 43.983 44.0847 44.0941 43.9483C44.2053 43.8119 44.3605 43.7185 44.5331 43.684L51.0108 42.447C51.121 42.4265 51.2345 42.4304 51.343 42.4586C51.4516 42.4867 51.5527 42.5383 51.6391 42.6098C51.7255 42.6813 51.7952 42.7709 51.8431 42.8723C51.8911 42.9737 51.9162 43.0844 51.9167 43.1965V46.7329L55.6847 45.5142V42.1687C55.6845 42.0094 55.7344 41.854 55.8274 41.7246C55.9203 41.5952 56.0516 41.4983 56.2027 41.4476L57.458 41.0251V27.1639H57.4925C58.7318 25.5755 59.8819 23.9195 60.9375 22.2036C59.4865 19.7987 57.7776 17.5592 55.8411 15.5248C54.0983 16.4052 52.4087 17.3873 50.7812 18.4661C49.9615 17.6993 49.0938 16.9856 48.1833 16.3292C47.2853 15.6746 46.353 15.0684 45.3903 14.5133C45.6603 12.444 45.8176 10.3616 45.8616 8.27531C43.452 7.10296 40.9064 6.23373 38.283 5.6875C37.241 7.46026 36.3017 9.2914 35.4697 11.1719C34.4934 11.0175 33.5067 10.9388 32.5183 10.9362H32.4817C31.4926 10.9386 30.5052 11.0174 29.5283 11.1719C28.697 9.29108 27.7576 7.4599 26.715 5.6875C24.0922 6.2344 21.5472 7.10432 19.1384 8.27734C19.1815 10.3637 19.3389 12.4461 19.6097 14.5153C18.6462 15.0702 17.7132 15.6764 16.8147 16.3312C15.9051 16.9873 15.0381 17.7003 14.2188 18.4661C12.5918 17.3875 10.903 16.4054 9.16094 15.5248C7.22371 17.5591 5.51412 19.7986 4.0625 22.2036C5.11675 23.9201 6.2655 25.5768 7.50344 27.1659L7.53797 27.1639Z" fill="white"/>
<path d="M25.3135 33.7187C25.3139 34.8191 24.988 35.8949 24.377 36.8101C23.766 37.7252 22.8973 38.4386 21.8808 38.8601C20.8644 39.2816 19.7458 39.3921 18.6665 39.1779C17.5872 38.9636 16.5956 38.4341 15.8173 37.6563C15.0389 36.8785 14.5086 35.8873 14.2936 34.8082C14.0785 33.729 14.1883 32.6103 14.609 31.5936C15.0297 30.5768 15.7425 29.7076 16.6572 29.096C17.5719 28.4843 18.6475 28.1576 19.7478 28.1572C20.4785 28.1569 21.202 28.3006 21.8771 28.5799C22.5522 28.8593 23.1657 29.2689 23.6825 29.7853C24.1993 30.3017 24.6093 30.9149 24.8892 31.5898C25.169 32.2647 25.3132 32.9881 25.3135 33.7187Z" fill="black"/>
<path d="M23.9688 34.0519C23.9688 34.7827 23.7521 35.497 23.3461 36.1046C22.9401 36.7122 22.363 37.1858 21.6879 37.4655C21.0128 37.7451 20.2698 37.8183 19.5531 37.6757C18.8364 37.5332 18.178 37.1813 17.6613 36.6645C17.1446 36.1478 16.7927 35.4894 16.6501 34.7727C16.5075 34.056 16.5807 33.3131 16.8604 32.6379C17.14 31.9628 17.6136 31.3857 18.2212 30.9797C18.8288 30.5737 19.5432 30.357 20.2739 30.357C20.7593 30.3565 21.24 30.4517 21.6885 30.6372C22.1371 30.8227 22.5446 31.0948 22.8878 31.438C23.231 31.7813 23.5031 32.1888 23.6886 32.6373C23.8741 33.0858 23.9693 33.5665 23.9688 34.0519Z" fill="black"/>
<path d="M32.8372 39.7922C32.3844 39.8132 31.9418 39.654 31.606 39.3495C31.2703 39.045 31.0688 38.6199 31.0457 38.1672V33.0423C31.0882 32.5966 31.2953 32.1828 31.6265 31.8816C31.9578 31.5804 32.3895 31.4135 32.8372 31.4135C33.285 31.4135 33.7166 31.5804 34.0479 31.8816C34.3792 32.1828 34.5863 32.5966 34.6288 33.0423V38.1651C34.6051 38.618 34.4032 39.0431 34.0671 39.3476C33.7311 39.652 33.2882 39.8112 32.8352 39.7901" fill="black"/>
<path d="M40.363 33.7187C40.3626 34.8191 40.6885 35.8949 41.2995 36.8101C41.9105 37.7252 42.7792 38.4386 43.7957 38.8601C44.8121 39.2816 45.9307 39.3921 47.01 39.1779C48.0893 38.9636 49.0809 38.4341 49.8592 37.6563C50.6376 36.8785 51.1679 35.8873 51.3829 34.8082C51.598 33.729 51.4882 32.6103 51.0675 31.5936C50.6468 30.5768 49.934 29.7076 49.0193 29.096C48.1046 28.4843 47.029 28.1576 45.9287 28.1572C45.198 28.1569 44.4745 28.3006 43.7994 28.5799C43.1243 28.8593 42.5108 29.2689 41.994 29.7853C41.4772 30.3017 41.0672 30.9149 40.7873 31.5898C40.5075 32.2647 40.3633 32.9881 40.363 33.7187Z" fill="black"/>
<path d="M41.7036 34.0519C41.704 34.7823 41.921 35.4961 42.3271 36.1032C42.7332 36.7102 43.3102 37.1832 43.9851 37.4623C44.6601 37.7415 45.4026 37.8142 46.1189 37.6713C46.8351 37.5284 47.4929 37.1764 48.0091 36.6596C48.5252 36.1429 48.8766 35.4847 49.0187 34.7683C49.1608 34.0519 49.0872 33.3094 48.8074 32.6348C48.5275 31.9602 48.0539 31.3837 47.4464 30.9783C46.8389 30.5728 46.1248 30.3566 45.3944 30.357C44.9094 30.357 44.4291 30.4526 43.9811 30.6384C43.533 30.8241 43.126 31.0963 42.7832 31.4395C42.4404 31.7826 42.1686 32.19 41.9834 32.6382C41.7982 33.0865 41.7031 33.5669 41.7036 34.0519Z" fill="black"/>
</svg>
