<svg width="42" height="57" viewBox="0 0 42 57" fill="none" xmlns="http://www.w3.org/2000/svg">
<path d="M30.5721 34.8341C31.6626 34.0882 33.1759 33.4425 33.1759 33.4425C33.1759 33.4425 28.8696 34.2218 24.5855 34.5781C19.3445 35.0122 13.714 35.1013 10.8876 34.7228C4.19999 33.8322 14.5597 31.3718 14.5597 31.3718C14.5597 31.3718 10.5426 31.1047 5.59092 33.4871C-0.250997 36.3148 20.0566 37.6061 30.5721 34.8341ZM21.0692 31.2605C18.955 26.5069 11.8223 22.3321 21.0692 15.0291C32.6084 5.92258 26.6886 0 26.6886 0C29.081 9.4071 18.2762 12.2571 14.3705 18.1017C11.711 22.0983 15.6724 26.3844 21.0692 31.2605ZM33.8213 11.6448C33.8324 11.6448 14.326 16.5209 23.6397 27.2528C26.3882 30.4144 22.9164 33.2644 22.9164 33.2644C22.9164 33.2644 29.8933 29.6574 26.6886 25.1487C23.6953 20.9405 21.4031 18.8476 33.8213 11.6448ZM33.1425 41.7586C33.0817 41.8647 33.0069 41.9621 32.92 42.0481C47.1965 38.2964 41.9444 28.8113 35.1232 31.216C34.7547 31.3512 34.4363 31.596 34.2108 31.9174C34.6091 31.7731 35.0184 31.6615 35.4348 31.5834C38.8843 30.8597 43.836 36.2034 33.1425 41.7586ZM38.3947 48.6943C38.3947 48.6943 40.0082 50.0191 36.6254 51.0544C30.1826 53.0026 9.83049 53.5926 4.17774 51.1323C2.14141 50.2528 5.95813 49.0171 7.1599 48.7611C8.40617 48.4939 9.12946 48.5384 9.12946 48.5384C6.87058 46.9464 -5.48091 51.6667 2.85357 53.0138C25.5759 56.7098 44.2923 51.355 38.3947 48.6943ZM13.5137 44.0854C4.75636 46.5345 18.8437 51.5888 29.9935 46.8129C28.9061 46.3902 27.8563 45.8763 26.8555 45.2765C21.8815 46.2228 19.5782 46.2896 15.0604 45.7775C11.3327 45.3545 13.5137 44.0854 13.5137 44.0854ZM33.5209 54.9063C24.7636 56.5539 13.9588 56.3647 7.56049 55.3071C7.56049 55.2959 8.87353 56.3869 15.6168 56.8211C25.8763 57.4779 41.6328 56.4537 42 51.5999C42 51.5999 41.2878 53.4368 33.5209 54.9063ZM28.6693 39.2983C22.0818 40.5674 18.2651 40.534 13.4469 40.0331C9.71922 39.6434 12.1561 37.8399 12.1561 37.8399C2.49749 41.0461 17.5196 44.6754 31.0172 40.7233C30.1449 40.415 29.3456 39.9299 28.6693 39.2983Z" fill="white"/>
</svg>
