<svg width="60" height="61" viewBox="0 0 60 61" fill="none" xmlns="http://www.w3.org/2000/svg">
<g filter="url(#filter0_d_107_3)">
<path d="M55.0483 19.7462C54.1546 16.1252 52.4599 13.3947 48.8501 13.3947H44.1956V18.9494C44.1956 23.2619 40.5742 26.8947 36.4421 26.8947H24.0456C20.6563 26.8947 17.8474 29.8244 17.8474 33.258V45.1877C17.8474 48.5861 20.7724 50.5783 24.0456 51.5509C27.9688 52.7111 31.7412 52.922 36.4421 51.5509C39.5644 50.6369 42.6403 48.797 42.6403 45.1877V40.4181H30.2554V38.8244H48.8501C52.4599 38.8244 53.7947 36.2814 55.0483 32.4728C56.3483 28.547 56.2903 24.7736 55.0483 19.7462ZM37.2197 43.5939C38.5081 43.5939 39.5528 44.6603 39.5528 45.9728C39.5528 47.297 38.5081 48.3634 37.2197 48.3634C35.9429 48.3634 34.8867 47.2853 34.8867 45.9728C34.8983 44.6486 35.9429 43.5939 37.2197 43.5939ZM23.4769 25.3244H35.8733C39.3206 25.3244 42.0715 22.4533 42.0715 18.9611V7.01968C42.0715 3.62125 39.2394 1.07828 35.8733 0.504058C31.7179 -0.187349 27.2028 -0.152192 23.4769 0.515777C18.2304 1.45328 17.2787 3.41031 17.2787 7.0314V11.8009H29.6867V13.3947H12.6242C9.01437 13.3947 5.85723 15.5861 4.87062 19.7462C3.73312 24.5158 3.68669 27.4923 4.87062 32.4728C5.75277 36.1759 7.85366 38.8244 11.4635 38.8244H15.7233V33.1056C15.7233 28.9689 19.2635 25.3244 23.4769 25.3244ZM22.6992 8.61343C21.4108 8.61343 20.3662 7.54703 20.3662 6.23453C20.3778 4.91031 21.4108 3.8439 22.6992 3.8439C23.976 3.8439 25.0322 4.92203 25.0322 6.23453C25.0322 7.54703 23.9876 8.61343 22.6992 8.61343Z" fill="white"/>
</g>
<defs>
<filter id="filter0_d_107_3" x="0" y="0" width="60.0017" height="60.5018" filterUnits="userSpaceOnUse" color-interpolation-filters="sRGB">
<feFlood flood-opacity="0" result="BackgroundImageFix"/>
<feColorMatrix in="SourceAlpha" type="matrix" values="0 0 0 0 0 0 0 0 0 0 0 0 0 0 0 0 0 0 127 0" result="hardAlpha"/>
<feOffset dy="4"/>
<feGaussianBlur stdDeviation="2"/>
<feComposite in2="hardAlpha" operator="out"/>
<feColorMatrix type="matrix" values="0 0 0 0 0 0 0 0 0 0 0 0 0 0 0 0 0 0 0.25 0"/>
<feBlend mode="normal" in2="BackgroundImageFix" result="effect1_dropShadow_107_3"/>
<feBlend mode="normal" in="SourceGraphic" in2="effect1_dropShadow_107_3" result="shape"/>
</filter>
</defs>
</svg>
